<?xml version="1.0" encoding="UTF-8"?>
<svg id="uuid-f1df8a53-8bde-42b3-b13d-1ef65a9f7572" data-name="Layer 2" xmlns="http://www.w3.org/2000/svg" viewBox="0 0 57.08 57.08">
  <g id="uuid-48ade73b-0fd0-4193-8baf-189038c25b39" data-name="Layer 1" fill="#f97316">
    <path d="M28.54,0C12.778,0,0,12.778,0,28.54s12.778,28.54,28.54,28.54,28.54-12.778,28.54-28.54S44.302,0,28.54,0ZM20.396,42.897c-4.747,0-8.019-1.875-10.373-4.628l3.551-3.43c1.915,2.234,4.269,3.43,7.141,3.43,3.232,0,4.907-1.556,4.907-3.909,0-1.875-.878-3.032-3.79-3.551l-2.633-.399c-5.625-.878-8.338-3.551-8.338-8.098,0-4.987,3.87-8.219,10.093-8.219,4.189,0,7.301,1.436,9.535,4.109l-3.591,3.391c-1.356-1.716-3.271-2.873-6.223-2.873-2.992,0-4.548,1.197-4.548,3.271,0,2.115,1.197,2.992,3.87,3.471l2.593.479c5.625.997,8.258,3.511,8.258,8.098,0,5.266-3.79,8.857-10.452,8.857ZM47.057,42.987l-5.492-.091v-10.56l-9.478-.049c-.236-1.984-1.11-3.659-2.732-4.874l.104.055h12.106v-13.376h5.492v28.895Z"/>
  </g>
</svg>