<?xml version="1.0" encoding="UTF-8"?>
<svg id="uuid-aafab0b1-79e4-4caf-aa6e-e79dddaf3c82" data-name="Layer 2" xmlns="http://www.w3.org/2000/svg" viewBox="0 0 63.175 49.292">
  <g id="uuid-d582bcd5-d593-4dc4-b8b4-c7578ce1e24d" data-name="Layer 1" fill="#43ead7">
    <g>
      <path d="M53.807,0v22.818h-20.651l-.178-.094c2.767,2.072,4.259,4.93,4.661,8.315l16.169.083v18.015l9.368.155V0h-9.368Z"/>
      <path d="M21.438,20.213l-4.424-.817c-4.56-.817-6.601-2.314-6.601-5.921,0-3.539,2.654-5.581,7.759-5.581,5.036,0,8.303,1.974,10.616,4.901l6.126-5.786C31.102,2.45,25.794,0,18.647,0,8.03,0,1.429,5.513,1.429,14.02c0,7.758,4.628,12.318,14.224,13.815l4.491.681c4.968.884,6.466,2.858,6.466,6.057,0,4.015-2.858,6.669-8.371,6.669-4.9,0-8.915-2.042-12.182-5.852l-6.057,5.852c4.016,4.697,9.596,7.895,17.695,7.895,11.365,0,17.831-6.125,17.831-15.108,0-7.826-4.491-12.113-14.088-13.815Z"/>
    </g>
  </g>
</svg>